<svg width="39" height="34" viewBox="0 0 39 34" fill="none" xmlns="http://www.w3.org/2000/svg">
<path d="M1.39286 6.2449H37.6071C38.3764 6.2449 39 5.62362 39 4.85714V1.38776C39 0.621281 38.3764 0 37.6071 0H1.39286C0.623565 0 0 0.621281 0 1.38776V4.85714C0 5.62362 0.623565 6.2449 1.39286 6.2449ZM1.39286 20.1224H37.6071C38.3764 20.1224 39 19.5012 39 18.7347V15.2653C39 14.4988 38.3764 13.8776 37.6071 13.8776H1.39286C0.623565 13.8776 0 14.4988 0 15.2653V18.7347C0 19.5012 0.623565 20.1224 1.39286 20.1224ZM1.39286 34H37.6071C38.3764 34 39 33.3787 39 32.6122V29.1429C39 28.3764 38.3764 27.7551 37.6071 27.7551H1.39286C0.623565 27.7551 0 28.3764 0 29.1429V32.6122C0 33.3787 0.623565 34 1.39286 34Z" fill="black"/>
</svg>
