<svg width="54" height="41" viewBox="0 0 54 41" fill="none" xmlns="http://www.w3.org/2000/svg">
<path d="M52.977 13.5385C53.3883 13.2076 54 13.5172 54 14.0404V35.875C54 38.7044 51.7324 41 48.9375 41H5.0625C2.26758 41 0 38.7044 0 35.875V14.051C0 13.5172 0.601172 13.2182 1.02305 13.5492C3.38555 15.407 6.51797 17.7667 17.2758 25.6784C19.5012 27.3227 23.2559 30.782 27 30.7607C30.7652 30.7927 34.5938 27.2586 36.7348 25.6784C47.4926 17.7667 50.6145 15.3964 52.977 13.5385ZM27 27.3333C29.4469 27.376 32.9695 24.2156 34.7414 22.913C48.7371 12.631 49.8023 11.7341 53.0297 9.17161C53.6414 8.69114 54 7.94375 54 7.15365V5.125C54 2.29557 51.7324 0 48.9375 0H5.0625C2.26758 0 0 2.29557 0 5.125V7.15365C0 7.94375 0.358594 8.68047 0.970312 9.17161C4.19766 11.7234 5.26289 12.631 19.2586 22.913C21.0305 24.2156 24.5531 27.376 27 27.3333Z" fill="black"/>
</svg>
