<svg width="44" height="50" viewBox="0 0 44 50" fill="none" xmlns="http://www.w3.org/2000/svg">
<path d="M22 25C28.9437 25 34.5714 19.4043 34.5714 12.5C34.5714 5.5957 28.9437 0 22 0C15.0562 0 9.42857 5.5957 9.42857 12.5C9.42857 19.4043 15.0562 25 22 25ZM30.8 28.125H29.1598C26.9795 29.1211 24.5536 29.6875 22 29.6875C19.4464 29.6875 17.0304 29.1211 14.8402 28.125H13.2C5.9125 28.125 0 34.0039 0 41.25V45.3125C0 47.9004 2.11161 50 4.71429 50H39.2857C41.8884 50 44 47.9004 44 45.3125V41.25C44 34.0039 38.0875 28.125 30.8 28.125Z" fill="black"/>
</svg>
