<svg width="30" height="20" viewBox="0 0 30 20" fill="none" xmlns="http://www.w3.org/2000/svg">
<path d="M29.4316 6.60417C29.6602 6.44271 30 6.59375 30 6.84896V17.5C30 18.8802 28.7402 20 27.1875 20H2.8125C1.25977 20 0 18.8802 0 17.5V6.85417C0 6.59375 0.333984 6.44792 0.568359 6.60937C1.88086 7.51562 3.62109 8.66667 9.59766 12.526C10.834 13.3281 12.9199 15.0156 15 15.0052C17.0918 15.0208 19.2188 13.2969 20.4082 12.526C26.3848 8.66667 28.1191 7.51042 29.4316 6.60417ZM15 13.3333C16.3594 13.3542 18.3164 11.8125 19.3008 11.1771C27.0762 6.16146 27.668 5.72396 29.4609 4.47396C29.8008 4.23958 30 3.875 30 3.48958V2.5C30 1.11979 28.7402 0 27.1875 0H2.8125C1.25977 0 0 1.11979 0 2.5V3.48958C0 3.875 0.199219 4.23437 0.539062 4.47396C2.33203 5.71875 2.92383 6.16146 10.6992 11.1771C11.6836 11.8125 13.6406 13.3542 15 13.3333Z" fill="black"/>
</svg>
