<svg width="29" height="30" viewBox="0 0 29 30" fill="none" xmlns="http://www.w3.org/2000/svg">
<path d="M14.5032 7.30838C10.3886 7.30838 7.06966 10.7425 7.06966 15C7.06966 19.2575 10.3886 22.6916 14.5032 22.6916C18.6179 22.6916 21.9368 19.2575 21.9368 15C21.9368 10.7425 18.6179 7.30838 14.5032 7.30838ZM14.5032 20.0006C11.8442 20.0006 9.67044 17.758 9.67044 15C9.67044 12.242 11.8378 9.99944 14.5032 9.99944C17.1687 9.99944 19.336 12.242 19.336 15C19.336 17.758 17.1622 20.0006 14.5032 20.0006ZM23.9747 6.99375C23.9747 7.99119 23.1984 8.7878 22.2409 8.7878C21.2769 8.7878 20.507 7.98449 20.507 6.99375C20.507 6.00301 21.2834 5.19971 22.2409 5.19971C23.1984 5.19971 23.9747 6.00301 23.9747 6.99375ZM28.8981 8.81457C28.7881 6.41136 28.2576 4.28261 26.5561 2.52873C24.8611 0.774852 22.8037 0.225929 20.4812 0.105433C18.0874 -0.0351445 10.9126 -0.0351445 8.51885 0.105433C6.20273 0.219235 4.1454 0.768158 2.44389 2.52203C0.742387 4.27591 0.218349 6.40466 0.101896 8.80788C-0.0339654 11.2847 -0.0339654 18.7086 0.101896 21.1854C0.21188 23.5886 0.742387 25.7174 2.44389 27.4713C4.1454 29.2251 6.19626 29.7741 8.51885 29.8946C10.9126 30.0351 18.0874 30.0351 20.4812 29.8946C22.8037 29.7808 24.8611 29.2318 26.5561 27.4713C28.2511 25.7174 28.7817 23.5886 28.8981 21.1854C29.034 18.7086 29.034 11.2914 28.8981 8.81457ZM25.8056 23.843C25.301 25.1551 24.3241 26.1659 23.0496 26.6947C21.1411 27.478 16.6123 27.2972 14.5032 27.2972C12.3941 27.2972 7.85895 27.4713 5.95689 26.6947C4.68885 26.1726 3.71194 25.1618 3.20084 23.843C2.44389 21.8682 2.61857 17.1823 2.61857 15C2.61857 12.8177 2.45036 8.12507 3.20084 6.15698C3.70547 4.84492 4.68238 3.8341 5.95689 3.30525C7.86542 2.52203 12.3941 2.70278 14.5032 2.70278C16.6123 2.70278 21.1475 2.52873 23.0496 3.30525C24.3176 3.8274 25.2945 4.83822 25.8056 6.15698C26.5626 8.13176 26.3879 12.8177 26.3879 15C26.3879 17.1823 26.5626 21.8749 25.8056 23.843Z" fill="black"/>
</svg>
